<?xml version="1.0" encoding="UTF-8" standalone="no"?>
<!-- Created with Inkscape (http://www.inkscape.org/) -->

<svg
   xmlns:dc="http://purl.org/dc/elements/1.1/"
   xmlns:cc="http://creativecommons.org/ns#"
   xmlns:rdf="http://www.w3.org/1999/02/22-rdf-syntax-ns#"
   xmlns:svg="http://www.w3.org/2000/svg"
   xmlns="http://www.w3.org/2000/svg"
   xmlns:sodipodi="http://sodipodi.sourceforge.net/DTD/sodipodi-0.dtd"
   xmlns:inkscape="http://www.inkscape.org/namespaces/inkscape"
   version="1.1"
   id="svg3870"
   width="48"
   height="62.080002"
   viewBox="0 0 48 62.080002"
   sodipodi:docname="capi.svg"
   inkscape:version="0.92.3 (2405546, 2018-03-11)">
  <metadata
     id="metadata3876">
    <rdf:RDF>
      <cc:Work
         rdf:about="">
        <dc:format>image/svg+xml</dc:format>
        <dc:type
           rdf:resource="http://purl.org/dc/dcmitype/StillImage" />
        <dc:title></dc:title>
      </cc:Work>
    </rdf:RDF>
  </metadata>
  <defs
     id="defs3874" />
  <sodipodi:namedview
     pagecolor="#ffffff"
     bordercolor="#666666"
     borderopacity="1"
     objecttolerance="10"
     gridtolerance="10"
     guidetolerance="10"
     inkscape:pageopacity="0"
     inkscape:pageshadow="2"
     inkscape:window-width="1366"
     inkscape:window-height="713"
     id="namedview3872"
     showgrid="false"
     inkscape:zoom="5.3761983"
     inkscape:cx="-27.464747"
     inkscape:cy="22.333227"
     inkscape:window-x="0"
     inkscape:window-y="27"
     inkscape:window-maximized="1"
     inkscape:current-layer="svg3870" />
  <g
     id="g12188"
     transform="translate(34.224928,-2.0460559)">
    <path
       style="fill:#d0d0d0;fill-opacity:1;stroke-width:0.31999999"
       d="m -12.866592,63.821999 c -0.943547,-0.548473 -1.489992,-2.318438 -1.490346,-4.827312 l -3.2e-4,-2.330278 -2.109457,-2.061421 c -3.220086,-3.146749 -4.965922,-5.957706 -6.063333,-9.762513 -0.850833,-2.949904 -0.506006,-8.345542 0.792548,-12.401301 0.546821,-1.707878 1.13522,-3.192376 1.307555,-3.298885 0.811016,-0.501236 0.03917,-0.628794 -3.286245,-0.543098 -2.662039,0.0686 -4.184232,-0.0565 -5.840419,-0.48 -2.23225,-0.570802 -2.243076,-0.578929 -3.12908,-2.3493 -1.640993,-3.278954 -2.068926,-13.374862 -0.647609,-15.278561 1.395997,-1.8697867 6.835214,-2.8125041 14.487911,-2.5110251 l 5.288778,0.208352 -0.110568,-1.7775498 c -0.144408,-2.321569 0.106324,-3.2223293 1.073317,-3.855928 1.520241,-0.9961 2.6440964,-0.1801732 3.4934587,2.5362749 0.1630166,0.5213625 0.2901667,0.4778092 1.1680848,-0.4001087 1.3309254,-1.3309255 2.3684595,-1.5560499 3.4435645,-0.7471855 0.7534604,0.5668726 0.852143,0.8588968 0.852143,2.5216823 0,1.547722 0.1332125,2.0137774 0.7526522,2.6332171 1.6745638,1.6745638 3.2473478,6.7887248 3.2473478,10.5592738 0,1.708483 0.0661312,1.86915 0.9952576,2.417999 1.5968032,0.943254 5.35872,4.649899 6.8425376,6.742003 3.1749698,4.476536 5.2014468,9.853449 5.4904898,14.568073 0.39727,6.48 -1.6344,11.383191 -6.1233634,14.778001 -2.742112,2.07374 -7.7851712,3.16184 -11.9239347,2.572732 l -1.9990128,-0.284537 -0.5609872,1.144083 c -0.9813248,2.001328 -4.2409429,3.221328 -5.9509699,2.227312 z m 3.5512163,-2.045494 c 0.044678,-0.02634 0.2286864,-0.845543 0.4089069,-1.820445 0.3901708,-2.110631 2.0487785,-7.330378 2.6198284,-8.244775 0.2221898,-0.355782 0.5329639,-0.646877 0.690609,-0.646877 0.4078723,0 0.054192,5.795514 -0.406176,6.655719 -0.5359283,1.001392 0.084606,1.190195 3.8055984,1.157885 C 6.0036598,58.806805 10.519506,54.62197 11.52893,46.158559 12.13061,41.113826 10.919893,36.902907 7.214975,31.15447 5.9026774,29.118353 1.1922486,23.864408 0.6790614,23.864408 c -0.1316768,0 -0.4864096,1.62 -0.7882976,3.6 -0.5566496,3.650923 -1.3734336,5.68 -2.2864288,5.68 -0.400505,0 -0.439641,-0.966459 -0.275359,-6.8 C -2.4573002,18.755205 -2.7861117,14.496279 -3.7518976,12.344407 -4.7656512,10.085659 -4.8783066,9.9751421 -5.665736,10.4669 -6.1845236,10.790888 -6.4280285,10.800988 -6.7184541,10.510562 -7.0088797,10.220136 -6.9367076,9.7157722 -6.406441,8.3300998 -5.1926125,5.15817 -5.5663194,4.859537 -7.9542864,7.0932006 -8.817929,7.9010371 -9.654609,8.4816105 -9.8135757,8.3833638 -9.9725424,8.2851171 -10.358268,7.3721599 -10.670743,6.3545701 c -0.312475,-1.0175898 -0.679321,-1.9726587 -0.815214,-2.1223754 -0.509746,-0.5616036 -0.685894,1.2239901 -0.30009,3.0419841 0.220139,1.0373437 0.32633,1.9600026 0.235979,2.0503534 -0.09035,0.090351 -2.738784,0.3091619 -5.885407,0.4862476 -6.024909,0.3390692 -10.308731,0.9124892 -12.441134,1.6653352 l -1.28,0.451904 -0.08166,4.608194 c -0.100895,5.693918 0.294868,7.652343 1.617354,8.003445 0.492634,0.130788 3.372634,0.33146 6.4,0.445936 5.0283,0.190141 7.31314,0.06657 12.507438,-0.676413 1.9319462,-0.276344 1.9380051,0.321759 0.01358,1.340497 -1.219256,0.64544 -5.331009,2.049725 -6.030607,2.05963 -0.779661,0.01104 -1.134554,0.603748 -1.760834,2.940785 -1.106704,4.129796 -1.700922,8.519409 -1.473987,10.888657 0.391964,4.092189 2.416181,9.59339 4.7176,12.820993 l 0.730631,1.024666 0.209316,-1.713076 c 0.230931,-1.889971 0.688518,-2.637571 1.262853,-2.063238 0.413796,0.413798 0.847794,3.943437 0.956159,7.776314 0.0423,1.496 0.125475,2.814477 0.184842,2.929952 0.08247,0.1604 2.1235791,-0.263709 2.5885446,-0.537856 z M -28.407329,19.729275 c -0.252878,-0.160087 -0.45951,-0.825133 -0.470745,-1.5151 -0.01101,-0.676372 -0.153173,-1.323235 -0.315909,-1.437472 -0.467584,-0.328233 0.03582,-1.232296 0.68617,-1.232296 1.481063,0 2.853938,2.333329 2.212294,3.76 -0.334795,0.744404 -1.300241,0.938639 -2.11181,0.424868 z m 12.468557,-4.560895 c -0.860492,-0.318316 -0.836944,-1.062231 0.05336,-1.685828 1.531835,-1.072939 5.688798,-0.385768 5.688798,0.940393 0,0.609623 -4.522289,1.196696 -5.742163,0.745435 z"
       id="path12204"
       inkscape:connector-curvature="0" />
    <path
       style="fill:#b9b9b9;fill-opacity:1;stroke-width:0.31999999"
       d="m -12.996228,63.692694 c -0.905984,-0.634576 -1.421678,-2.58681 -1.301608,-4.927418 l 0.09519,-1.855517 -2.772462,-2.913383 c -3.077551,-3.233977 -5.038274,-6.622019 -5.716486,-9.87783 -0.779792,-3.743456 0.149351,-10.553859 1.947665,-14.275941 0.345028,-0.714124 0.627033,-1.307361 0.626679,-1.318303 -3.52e-4,-0.01094 -1.908354,-0.02734 -4.24,-0.03644 -3.173527,-0.01239 -4.658442,-0.158555 -5.906277,-0.581374 -1.506071,-0.510319 -1.747197,-0.728899 -2.498827,-2.265175 -1.562914,-3.194481 -1.938574,-13.320183 -0.56255,-15.163217 1.360757,-1.8225861 6.817554,-2.7692779 14.328298,-2.485796 l 5.44,0.2053248 -0.106044,-2.0581178 c -0.07917,-1.5365187 0.03216,-2.2690383 0.439266,-2.8903649 0.787418,-1.2017506 1.92071,-1.3935156 2.884494,-0.4880868 0.4302562,0.4042046 0.782284,0.844442 0.782284,0.9783052 0,0.1338631 0.1492435,0.6359278 0.3316522,1.1156991 l 0.3316521,0.8723114 1.0986083,-1.0648129 c 1.3727581,-1.3305296 2.8310839,-1.4434515 3.7642999,-0.2914796 0.504919,0.6232779 0.5934893,1.0932915 0.4564589,2.4222845 -0.1510304,1.4647741 -0.080128,1.7328381 0.6347958,2.4000001 0.442649,0.4130768 1.0875824,1.3025229 1.4331856,1.9765479 0.8154528,1.590359 1.8493568,6.289449 1.8777792,8.534501 l 0.022272,1.76 1.7781536,1.275045 c 2.2212416,1.592764 5.1696128,4.722048 6.716608,7.128738 5.0801924,7.90336 6.2550654,16.71561 3.0806304,23.106606 -1.1204,2.25567 -4.2596352,5.424073 -6.3261056,6.384889 -2.3760256,1.104743 -6.2370432,1.700599 -9.12,1.40745 -1.32,-0.134224 -2.5085018,-0.248246 -2.6411149,-0.253386 -0.1326131,-0.0052 -0.4926131,0.49249 -0.8,1.105837 -1.0459622,2.087072 -4.4170825,3.23681 -6.0785035,2.073108 z m 3.0240587,-1.648452 c 0.560719,-0.134118 0.7796838,-0.536889 1.0732461,-1.974163 0.6003308,-2.93921 2.1869622,-7.612768 2.8577376,-8.417715 l 0.6232841,-0.747956 -0.012714,1.76 c -0.01391,1.925607 -0.3834144,4.654788 -0.7433639,5.490548 -0.1969833,0.457376 0.1032359,0.561635 2.1767155,0.755936 C 2.3369974,59.504463 7.5880214,56.991036 9.8895158,52.263925 11.805941,48.32772 12.253247,42.486949 10.937138,38.584408 10.002716,35.813646 7.7771254,31.657134 6.012191,29.38657 4.3530646,27.252127 0.7750806,23.66605 0.539567,23.901565 c -0.0883072,0.08831 -0.4083488,1.794628 -0.7112,3.791822 -0.432288,2.850768 -0.7152,3.826827 -1.3162528,4.541141 -0.421088,0.500434 -0.8608144,0.909885 -0.9771693,0.909891 -0.1163545,7e-6 -0.2165728,-4.139993 -0.2227069,-9.2 -0.010592,-8.736021 -0.046914,-9.28974 -0.7202214,-10.979154 -1.0531187,-2.642405 -1.3987414,-3.0278131 -2.2883133,-2.551729 -1.2539334,0.671085 -1.4943366,-0.03422 -0.7101443,-2.0834362 1.2212,-3.191193 0.7554877,-3.536679 -1.617176,-1.1996925 -0.939289,0.9251651 -1.6380099,1.3879821 -1.811657,1.2 -0.1554662,-0.1683001 -0.53554,-1.0980003 -0.844608,-2.0660004 -0.713776,-2.2355439 -0.816715,-2.4030388 -1.151827,-1.8741641 -0.392732,0.6198111 -0.348131,2.1338627 0.09931,3.3712362 0.274098,0.7580032 0.285584,1.1611347 0.04008,1.4066378 -0.194267,0.1942672 -2.835103,0.4773923 -6.064209,0.6501459 -6.167548,0.3299573 -10.484476,0.9296633 -12.373403,1.7189073 l -1.186678,0.495826 v 4.459955 c 0,5.137434 0.396796,7.53878 1.328053,8.037174 0.348479,0.1865 3.324227,0.417408 6.612773,0.513128 5.449121,0.158608 7.588062,0.03473 12.779174,-0.740115 3.2003117,-0.477691 0.01925,1.589927 -4.41103,2.867066 -3.052409,0.879934 -2.921967,0.70923 -3.953834,5.174204 -1.325712,5.73647 -1.403531,8.839203 -0.331527,13.218397 0.558715,2.282381 2.822304,7.240458 4.090178,8.958963 l 0.7657,1.03785 0.147518,-1.778864 c 0.154934,-1.868301 0.649655,-2.767686 1.212698,-2.204643 0.430084,0.430083 0.931134,4.559085 0.988361,8.14479 0.04506,2.823575 0.06882,2.911681 0.729259,2.705236 0.375472,-0.11737 0.999675,-0.289219 1.3871167,-0.381895 z M -28.408283,19.728685 c -0.249017,-0.157634 -0.466653,-0.83743 -0.485058,-1.515099 -0.01836,-0.676048 -0.147607,-1.409179 -0.287212,-1.629179 -0.653664,-1.030093 0.863764,-1.40764 1.929206,-0.48 0.837003,0.728748 1.153712,1.780898 0.893158,2.967191 -0.217709,0.991224 -1.083756,1.268806 -2.050094,0.657087 z m 12.71892,-4.436529 c -0.886569,-0.173372 -1.022962,-1.120154 -0.251376,-1.744947 0.779183,-0.630944 3.253771,-0.763811 4.611498,-0.247604 0.802872,0.305251 1.3876934,1.136408 1.042494,1.481607 -0.221127,0.221127 -4.712526,0.645894 -5.402616,0.510944 z"
       id="path12202"
       inkscape:connector-curvature="0" />
    <path
       style="fill:#a3a3a3;fill-opacity:1;stroke-width:0.31999999"
       d="m -12.814634,63.692892 c -1.098267,-0.596342 -1.327803,-1.325526 -1.406611,-4.468483 l -0.06419,-2.56 -2.722534,-2.764577 c -3.078101,-3.125638 -5.08712,-6.656784 -5.709572,-10.035424 -0.701993,-3.810378 0.226243,-10.405169 1.97361,-14.021803 0.345028,-0.714124 0.627058,-1.307361 0.626734,-1.318303 -3.2e-4,-0.01094 -1.908324,-0.0322 -4.24,-0.04724 -3.104952,-0.02003 -4.685476,-0.175602 -5.906332,-0.581373 -1.504439,-0.500023 -1.746584,-0.716852 -2.484189,-2.22446 -1.46123,-2.986648 -1.851723,-13.466131 -0.566305,-15.197714 1.312176,-1.7676299 7.256528,-2.7620273 14.65971,-2.4523409 l 5.142296,0.2151101 -0.137045,-1.8946305 c -0.24106,-3.3326176 1.532284,-5.2508395 3.31017,-3.5806024 0.4302562,0.4042046 0.782284,0.844442 0.782284,0.9783052 0,0.1338631 0.1492435,0.6359278 0.3316522,1.1156991 l 0.3316521,0.8723114 1.0435821,-1.0114795 c 1.151121,-1.1157104 2.5350058,-1.3303144 3.591952,-0.5570172 0.495584,0.3625857 0.6211616,0.8433225 0.6211616,2.3779341 0,1.6499178 0.1222262,2.0517623 0.859425,2.8255377 0.4726838,0.4961363 1.1589494,1.6032929 1.525039,2.4603489 0.7350272,1.720795 1.615536,6.263381 1.615536,8.33464 0,1.161533 0.1311104,1.405677 1.04,1.936604 1.9068032,1.113858 6.418352,6.020283 8.0454784,8.749663 5.0593856,8.486731 5.6652636,17.253131 1.6309566,23.598178 -3.1785822,4.999187 -9.9036542,7.435168 -16.6903016,6.045626 -0.5469001,-0.111978 -0.818014,0.111408 -1.28,1.054653 -1.0575603,2.159238 -3.9647884,3.214745 -5.9241584,2.150838 z m 2.334834,-1.477318 c 1.2511907,-0.374868 1.3577888,-0.530452 1.7205148,-2.511165 0.4102871,-2.240426 2.1496208,-7.371226 2.737937,-8.076545 l 0.6034467,-0.723456 -0.016355,1.6 c -0.019379,1.895693 -0.4119645,4.902557 -0.737944,5.652013 -0.1981542,0.455578 0.081818,0.565559 1.9486247,0.765476 1.3005516,0.139276 3.1362,0.08481 4.55017756,-0.135018 C 7.0178528,57.746613 10.67663,53.69814 11.570659,46.345215 12.187738,41.270046 10.912326,36.659381 7.4321664,31.384408 5.6923872,28.747376 0.90698876,23.534143 0.55200636,23.889128 c -0.08256,0.08256 -0.3843424,1.586771 -0.6706304,3.342693 -0.2862848,1.755923 -0.6681088,3.578176 -0.8484928,4.049453 -0.34391036,0.898512 -1.53675556,2.171758 -1.56710176,1.67273 -0.00969,-0.159278 -0.045687,-4.249596 -0.080001,-9.089596 -0.05438,-7.670254 -0.1399244,-9.030319 -0.6663379,-10.594031 -0.3321715,-0.986716 -0.8496886,-2.119815 -1.1500381,-2.517998 -0.4755635,-0.630469 -0.6404521,-0.673466 -1.2767472,-0.332931 -1.2798796,0.684971 -1.466111,-0.7508269 -0.3643961,-2.8094001 0.5017939,-0.9376106 0.4417728,-1.985641 -0.1137187,-1.985641 -0.2578669,0 -1.1195748,0.6790919 -1.9149069,1.5090932 -0.8981984,0.937352 -1.5543216,1.3919891 -1.7318167,1.2 C -9.9893485,8.1634988 -10.370814,7.232407 -10.679882,6.2644069 -11.393658,4.028863 -11.496597,3.8613681 -11.831709,4.3902428 c -0.386933,0.6106599 -0.350228,2.2312611 0.07838,3.4607767 0.569513,1.6337072 0.175518,1.7368272 -8.043284,2.1051594 -4.558977,0.2043141 -8.48956,0.8106181 -10.38247,1.6015271 -1.124966,0.47004 -1.137881,0.497333 -1.169309,2.470996 -0.116751,7.331931 0.274661,10.283827 1.407576,10.615464 0.387311,0.113377 3.440203,0.288925 6.784203,0.390107 5.535436,0.16749 8.603072,-0.0072 12.72,-0.72453 3.1455837,-0.548051 -0.328222,1.636712 -4.532174,2.850397 -1.468563,0.423976 -2.783312,0.973139 -2.921666,1.220364 -0.451524,0.806829 -1.551694,5.644017 -1.92966,8.484266 -0.668514,5.023584 0.3375,10.024387 2.992424,14.875059 1.772822,3.239028 2.437525,4.172538 2.481183,3.48458 0.205041,-3.231021 0.356292,-3.840001 0.953737,-3.840001 0.562051,0 0.99007,2.46842 1.179106,6.800001 0.105613,2.42 0.261947,4.4 0.34741,4.4 0.08546,0 0.709365,-0.165975 1.386449,-0.368835 z M -28.557043,19.343788 c -0.29508,-0.421286 -0.425073,-1.024453 -0.315164,-1.462363 0.102886,-0.409931 0.03522,-0.928288 -0.150364,-1.151905 -0.189312,-0.228108 -0.222039,-0.593281 -0.07456,-0.831913 0.396266,-0.641173 1.984945,0.223657 2.540623,1.383041 0.913877,1.906741 -0.841847,3.717405 -2.000539,2.06314 z m 12.161928,-4.606639 c -0.102906,-0.268168 0.09753,-0.771763 0.445764,-1.12 1.174502,-1.174502 5.42479,-0.659334 5.684455,0.688999 0.07519,0.390431 -0.288786,0.552046 -1.597165,0.709182 -2.883134,0.346263 -4.327444,0.25763 -4.533054,-0.278181 z"
       id="path12200"
       inkscape:connector-curvature="0" />
    <path
       style="fill:#8c8c8c;fill-opacity:1;stroke-width:0.31999999"
       d="m -12.653832,63.804015 c -1.020819,-0.493526 -1.506447,-1.984125 -1.537585,-4.719498 l -0.02755,-2.420108 -2.781191,-2.80313 c -4.591636,-4.627853 -6.328337,-9.192672 -5.862485,-15.409204 0.190276,-2.53912 1.353121,-6.885127 2.533227,-9.467667 0.188311,-0.412098 -0.358293,-0.485029 -3.863928,-0.515549 -4.241495,-0.03693 -6.536505,-0.447772 -7.564735,-1.35422 -0.720358,-0.63504 -1.617256,-2.634277 -1.924752,-4.290382 -0.33527,-1.80569 -0.279968,-10.851496 0.072,-11.777244 0.45401,-1.1941365 0.888843,-1.4369823 4.054219,-2.2642057 2.612139,-0.6826429 3.492921,-0.7483715 9.47003,-0.706704 l 6.59003,0.04594 -0.147159,-1.5315124 C -14.047337,2.3899051 -11.07998,0.66605023 -9.5192046,4.1944427 L -8.8739152,5.65322 -7.7641274,4.6788135 c 1.4235856,-1.2499246 2.7116723,-1.2914608 3.6353254,-0.1172262 0.5483959,0.6971724 0.6355255,1.1154686 0.4667632,2.2408565 -0.1904796,1.2702093 -0.1142275,1.4869117 0.9298631,2.6425952 1.5975187,1.768264 3.0586355,6.819762 3.1062963,10.739368 0.014528,1.19581 0.1499264,1.379282 2.0583488,2.78944 6.3724288,4.708672 11.3275426,14.244526 11.3542016,21.850561 0.01501,4.282711 -1.842637,9.101098 -4.5541536,11.812612 -1.9314432,1.931443 -3.515968,2.840598 -6.2193664,3.568483 -1.8649856,0.502147 -7.4360134,0.709523 -8.6562816,0.322227 -0.5236125,-0.166189 -0.764761,0.02848 -1.241648,1.0024 -1.0120253,2.066772 -3.8685794,3.192688 -5.7690534,2.273885 z m 2.174032,-1.588441 c 1.249536,-0.374372 1.3514227,-0.522532 1.7268537,-2.511165 0.5999287,-3.17778 2.4919997,-8.320001 3.061329,-8.320001 0.4946845,0 0.1071334,5.239159 -0.5009399,6.772013 -0.1795273,0.45256 0.1150474,0.567408 1.9724512,0.769008 1.2075383,0.131066 3.1910938,0.09326 4.4377754,-0.08458 C 6.8923766,57.888716 10.676309,53.700757 11.580428,46.26485 12.179999,41.333685 11.096047,37.170648 7.8539158,31.952778 6.3786614,29.57851 0.9185014,23.52263 0.5685622,23.872568 c -0.091664,0.09167 -0.4008992,1.603331 -0.6871872,3.359253 -0.5971936,3.662862 -0.9317952,4.684897 -1.7872256,5.459049 -0.4755158,0.430337 -0.6106662,0.453174 -0.6103418,0.103134 2.295e-4,-0.247278 -0.046002,-4.409596 -0.1027363,-9.249597 C -2.7121908,15.588226 -2.7855805,14.572938 -3.3842928,12.956193 -3.7485088,11.972676 -4.232329,10.870426 -4.459449,10.506749 -4.8454567,9.8886522 -4.922585,9.8784048 -5.6418116,10.34966 -6.8077418,11.113607 -7.0832234,10.347836 -6.3299591,8.4367955 -5.0935316,5.2999537 -5.8371021,4.7370111 -8.0989063,7.0975606 -8.8752474,7.9077951 -9.644753,8.487702 -9.8089184,8.3862422 -9.9730839,8.2847824 -10.349601,7.3385737 -10.645624,6.2835567 c -0.296023,-1.0550173 -0.671873,-2.0008133 -0.835223,-2.1017689 -0.692711,-0.4281192 -0.776348,2.0372134 -0.142435,4.1984893 0.288219,0.982656 -0.254916,1.1017623 -6.521566,1.4301392 -3.051532,0.1599024 -6.4774,0.4391657 -7.61304,0.6205847 -2.14906,0.343314 -4.886863,1.155308 -5.342518,1.584515 -0.420642,0.396226 -0.355737,8.973341 0.0817,10.796791 0.22867,0.953203 0.618584,1.736238 0.928202,1.864039 0.293641,0.121206 3.269893,0.294227 6.613893,0.384492 5.451381,0.147149 10.431584,-0.137277 13.36,-0.763006 0.484,-0.103419 0.88,-0.05013 0.88,0.118414 0,0.538643 -2.976793,1.949301 -5.609638,2.658324 -1.402699,0.377746 -2.721476,0.905362 -2.930615,1.17248 -0.209139,0.267118 -0.770145,2.090299 -1.246681,4.051513 -1.190741,4.900571 -1.25923,10.100437 -0.181841,13.805845 0.64827,2.229565 3.314963,7.852839 4.29417,9.055146 0.486085,0.596835 0.760953,0.0062 0.828526,-1.780259 0.05413,-1.431075 0.460013,-2.327619 0.868727,-1.918906 0.413242,0.413242 0.740041,2.751885 0.957221,6.850074 0.124573,2.350669 0.298357,4.273946 0.386187,4.273946 0.08783,0 0.713669,-0.165975 1.390753,-0.368835 z M -28.406445,19.580753 c -0.216607,-0.260996 -0.348006,-0.951945 -0.291998,-1.535442 0.05601,-0.583497 -0.07548,-1.204904 -0.292195,-1.380904 -0.242396,-0.196854 -0.288122,-0.487812 -0.118823,-0.756068 0.410873,-0.651035 1.990042,0.197826 2.552957,1.372309 0.829618,1.73094 -0.721617,3.659653 -1.849941,2.300105 z m 12.026051,-4.805242 c -0.548181,-1.428538 2.707551,-2.316224 4.992919,-1.361336 1.7335092,0.724306 1.5397719,1.359177 -0.489134,1.602878 -2.779327,0.333836 -4.314587,0.251499 -4.503785,-0.241542 z"
       id="path12198"
       inkscape:connector-curvature="0" />
    <path
       style="fill:#767676;fill-opacity:1;stroke-width:0.31999999"
       d="m -12.337954,63.8607 c -1.268951,-0.509981 -1.732093,-1.669171 -1.809777,-4.529658 l -0.07242,-2.666633 -2.54823,-2.573617 c -2.753887,-2.781318 -4.244527,-5.025056 -5.32023,-8.008093 -0.568919,-1.577673 -0.683336,-2.600905 -0.677436,-6.058291 0.0067,-3.903027 0.07536,-4.357671 1.112196,-7.36 0.607803,-1.76 1.211405,-3.435505 1.341338,-3.723343 0.211886,-0.469388 -0.188076,-0.524062 -3.879532,-0.530326 -4.277207,-0.0073 -6.549726,-0.395372 -7.550983,-1.289603 -0.747885,-0.667943 -1.450587,-2.338497 -1.841028,-4.376729 -0.467723,-2.441674 -0.400464,-10.885906 0.09503,-11.930525 0.90393,-1.9057044 7.616268,-3.1375678 15.050143,-2.7620363 2.418749,0.1221863 4.500784,0.1659978 4.626743,0.097359 0.12596,-0.068639 0.234983,-1.1091825 0.242274,-2.3123192 0.01196,-1.9733587 0.09813,-2.2605487 0.880232,-2.9334477 0.568192,-0.4888594 1.103255,-0.6841381 1.552582,-0.5666364 0.752101,0.1966787 1.897354,1.8414353 1.8992468,2.7276054 0.00163,0.7700192 0.2261466,0.7097536 1.4900861,-0.4 2.0938023,-1.8383826 4.0579427,-0.9586694 4.0027152,1.7927645 -0.016474,0.8207373 -0.09884,1.561137 -0.1830352,1.6453322 -0.084195,0.084196 0.2546522,0.4961687 0.7529946,0.9154961 0.4983424,0.4193277 1.2285315,1.4473124 1.6226435,2.2844104 0.8375232,1.778906 1.9055424,6.651948 1.9115936,8.721997 0.004096,1.397464 0.0648096,1.484854 2.0557856,2.958454 7.3788416,5.461373 12.3504578,16.438721 11.0987588,24.506117 -0.703136,4.531805 -2.464647,7.833946 -5.413706,10.148557 -3.003408,2.357274 -4.6113248,2.825869 -9.9523776,2.900406 l -4.6157402,0.06442 -0.5183868,1.002448 c -0.8899885,1.721049 -3.7170144,2.912768 -5.3514804,2.255891 z m 2.5601997,-1.893043 c 0.60176,-0.228791 0.8097133,-0.602682 0.9648931,-1.734842 0.2545364,-1.857046 2.3794884,-8.443194 2.8099418,-8.709229 0.1808896,-0.111795 0.4173872,-0.114768 0.5255501,-0.0066 0.2180886,0.21809 -0.3837117,5.798557 -0.7160003,6.63944 -0.5177837,1.310295 7.4108822,1.052528 10.5669238,-0.343542 2.146992,-0.949715 4.7219968,-3.555533 5.7274528,-5.795984 1.179792,-2.628925 1.89825,-6.654705 1.68871,-9.462458 C 11.385308,37.13549 7.6904182,30.3234 2.4766614,25.38442 c -1.3571456,-1.285619 -2.106912,-1.796071 -2.1151136,-1.44 -9.6e-4,0.044 -0.2737632,1.692355 -0.606112,3.66301 -0.4138304,2.453814 -0.827648,3.896718 -1.3130656,4.578424 -0.38984,0.547478 -0.7739827,0.93023 -0.8536534,0.850559 -0.079671,-0.07968 -0.1325002,-3.795974 -0.1173994,-8.258437 0.029657,-8.763734 -0.1640541,-10.532656 -1.4514045,-13.25389 l -0.8385837,-1.772621 -0.8092233,0.530224 c -1.18532,0.776651 -1.4555162,0.06663 -0.702065,-1.8448935 C -5.9926167,7.5809507 -5.716609,6.5179036 -5.716609,6.074469 V 5.2682238 L -6.7119815,5.8463154 C -7.2594362,6.1642658 -8.1275047,6.928407 -8.6410224,7.544407 -9.7378426,8.8601181 -9.9019194,8.7266323 -10.720204,5.8528748 -11.014957,4.817725 -11.403766,4.0543913 -11.602013,4.1216554 c -0.403295,0.1368359 -0.453373,2.8327468 -0.07615,4.0993804 0.328118,1.1017453 -0.0828,1.2453722 -4.118448,1.4395229 -6.469047,0.3112183 -10.926205,0.7981583 -13.023733,1.4228293 -1.182777,0.352246 -2.227919,0.765708 -2.322537,0.918804 -0.09462,0.153096 -0.252635,1.818655 -0.351147,3.701241 -0.171192,3.271537 0.248136,7.559858 0.831536,8.503819 0.724342,1.172011 16.118671,1.239799 20.6953316,0.09113 0.4066854,-0.102072 0.7305494,-0.03719 0.7305494,0.146358 0,0.547358 -3.670436,2.20511 -6.205677,2.802794 l -2.378941,0.560836 -0.805907,2.908018 c -2.217911,8.003065 -1.872876,13.620867 1.220257,19.868019 2.712785,5.47897 3.206949,5.894449 3.324189,2.794887 0.0551,-1.456672 0.461292,-2.326339 0.887495,-1.900138 0.343899,0.343901 0.73227,3.317325 0.96231,7.367575 0.237991,4.19023 0.100924,4.01599 2.4551287,3.120925 z M -28.419261,19.565311 c -0.209558,-0.252503 -0.33519,-0.936503 -0.279182,-1.52 0.05601,-0.583497 -0.07548,-1.204904 -0.292195,-1.380904 -0.712844,-0.578916 0.01596,-1.187068 0.982289,-0.819671 1.197807,0.455405 2.044932,2.293337 1.553827,3.371196 -0.407151,0.893599 -1.370852,1.064969 -1.964739,0.349379 z m 12.200139,-4.751636 c -1.138947,-1.372348 2.485437,-2.379809 4.912791,-1.365596 1.7511338,0.73167 1.4233012,1.332381 -0.857219,1.570742 -2.851254,0.298015 -3.67246,0.256476 -4.055572,-0.205146 z"
       id="path12196"
       inkscape:connector-curvature="0" />
    <path
       style="fill:#606060;fill-opacity:1;stroke-width:0.31999999"
       d="m -12.337954,63.864914 c -1.275231,-0.520169 -1.711485,-1.635881 -1.748186,-4.470944 l -0.03417,-2.639331 -2.29407,-2.285117 c -5.300175,-5.279485 -6.871174,-9.543875 -6.215302,-16.871082 0.267674,-2.990371 1.377705,-7.010349 2.342238,-8.482412 l 0.468998,-0.715783 -5.029083,-0.108922 c -6.121304,-0.132579 -6.56586,-0.300468 -7.909084,-2.986915 l -0.96,-1.920001 v -6.347508 c 0,-7.5262593 -0.221713,-7.1110439 4.403556,-8.2468193 2.558809,-0.6283377 3.739015,-0.7217095 8.774908,-0.694226 3.200156,0.017466 6.121328,0.12788 6.491495,0.2453664 0.648013,0.2056714 0.666093,0.1383319 0.486387,-1.8116007 -0.200883,-2.1797231 0.136465,-3.2228689 1.286647,-3.9785568 0.958412,-0.6296918 2.106966,0.071344 2.6817174,1.6368241 0.2577648,0.7020861 0.5103174,1.3316837 0.5612288,1.3991061 0.050911,0.067422 0.6064128,-0.3285778 1.234448,-0.88 2.2381526,-1.965124 4.1074352,-1.0524836 3.9375491,1.9224305 -0.083737,1.466337 0.00799,1.8007523 0.6326701,2.3065524 1.6599664,1.3440663 3.0275664,5.3696843 3.4534608,10.1654823 l 0.2164256,2.437052 1.9134496,1.393408 c 5.6358848,4.104157 10.2089536,12.068301 11.1506656,19.419252 0.698022,5.448701 -1.019126,11.078493 -4.380352,14.361287 -3.034512,2.963705 -6.5336352,4.084304 -12.1908778,3.90414 l -3.3600524,-0.107008 -0.5765293,1.123773 c -0.8424826,1.642167 -3.7763185,2.868628 -5.3381415,2.231552 z m 2.253085,-1.719718 c 0.9717038,-0.406003 1.0817035,-0.605616 1.4548283,-2.64 0.5170349,-2.819027 2.3229008,-7.870612 2.8800119,-8.056314 0.3441264,-0.11471 0.3862492,0.320358 0.2147462,2.217994 -0.117344,1.298384 -0.3421898,2.931942 -0.499657,3.630131 -0.1574672,0.698189 -0.2264124,1.329325 -0.1532118,1.402525 0.073201,0.0732 1.4692435,0.200819 3.1023174,0.283593 3.1625626,0.160301 5.9927866,-0.36096 8.2300314,-1.515779 C 10.162501,54.876997 12.983061,46.905634 11.378124,39.849253 10.791221,37.268846 8.318671,32.231469 6.374015,29.654278 4.9041334,27.706291 0.722447,23.398686 0.5087414,23.612391 c -0.0727936,0.07279 -0.416336,1.819302 -0.7634304,3.881131 -0.4485696,2.664618 -0.8437696,4.046966 -1.3665024,4.779833 l -0.7354176,1.031053 -0.1741965,-9.44 c -0.1623229,-8.796551 -0.2227837,-9.559966 -0.8870125,-11.200001 -0.960248,-2.37093 -1.5452281,-3.1215628 -2.04399,-2.622801 -0.2105405,0.210541 -0.586345,0.382801 -0.8351207,0.382801 -0.5303798,0 -0.4017331,-1.0061724 0.4051514,-3.1687719 C -4.994201,4.8499644 -6.1971917,4.7449714 -8.2229463,7.0521785 -9.7140858,8.7504925 -9.8852404,8.6415779 -10.857356,5.375764 -11.081424,4.6230105 -11.42042,4.0598532 -11.61068,4.1243035 c -0.386311,0.1308616 -0.421977,3.1912961 -0.04963,4.2587592 0.18968,0.5437888 0.08837,0.7150886 -0.509787,0.8619866 -0.87296,0.2143846 -3.766978,0.4463827 -8.90651,0.7139882 -3.951796,0.2057615 -7.934252,0.8894565 -9.302548,1.5970295 -0.672304,0.347662 -0.88885,0.748424 -1.053507,1.949725 -0.310873,2.268062 -0.01,8.422089 0.483028,9.878615 0.427874,1.26414 0.457033,1.282544 2.353135,1.48527 4.737045,0.506471 15.598451,0.193274 18.479892,-0.532881 1.1942163,-0.300956 1.1070774,0.195159 -0.162023,0.922457 -1.017989,0.583392 -6.453309,2.439673 -7.154172,2.443308 -0.868745,0.0045 -2.673505,8.208573 -2.679601,12.180922 -0.0055,3.569792 0.945716,7.319511 2.79569,11.020925 2.5487,5.099421 3.264526,5.610605 3.275206,2.338887 0.0027,-0.825613 0.141675,-1.585648 0.308845,-1.688963 0.643546,-0.397735 1.040418,1.344355 1.388931,6.096777 0.392352,5.350228 0.360673,5.287201 2.258864,4.494087 z M -28.44736,19.364318 c -0.194298,-0.363049 -0.308292,-1.088874 -0.25332,-1.612946 0.05497,-0.524071 -0.07152,-1.058832 -0.281099,-1.188356 -0.213488,-0.131944 -0.271264,-0.413132 -0.131388,-0.639456 0.424106,-0.686218 1.900808,0.122226 2.493495,1.365102 0.429003,0.899629 0.461355,1.277171 0.16515,1.92727 -0.44867,0.984724 -1.50322,1.063246 -1.992838,0.148386 z m 12.410751,-4.319361 c -0.556074,-0.572794 -0.19661,-1.373068 0.767751,-1.709246 1.271685,-0.443311 2.464583,-0.44618 3.718842,-0.0089 0.833782,0.290658 1.5825177,1.135196 1.277149,1.440564 -0.238264,0.238265 -5.55341,0.494283 -5.763742,0.277626 z"
       id="path12194"
       inkscape:connector-curvature="0" />
    <path
       style="fill:#494949;fill-opacity:1;stroke-width:0.31999999"
       d="m -13.373383,63.021254 c -0.552931,-0.702938 -0.663226,-1.295917 -0.663226,-3.565697 V 56.73302 l -2.198561,-2.114308 c -2.594218,-2.4948 -4.852615,-5.857763 -5.777497,-8.603232 -1.367669,-4.059866 -0.72796,-11.71472 1.340112,-16.035962 l 0.751738,-1.570761 -4.977896,-0.123568 c -3.940207,-0.09781 -5.194039,-0.239306 -6.014756,-0.678769 -2.12468,-1.137688 -2.96314,-4.298688 -2.96314,-11.171062 0,-5.984821 0.150665,-6.320812 3.239124,-7.2234246 3.425815,-1.0012058 7.518512,-1.407449 11.93711,-1.1848829 2.125071,0.1070407 4.169519,0.2563987 4.543216,0.3319072 0.646274,0.1305843 0.677524,0.02207 0.64,-2.2224087 -0.0468,-2.7990252 0.549514,-3.8098115 2.151927,-3.6476698 0.995686,0.1007494 1.210968,0.3445352 1.9624992,2.2223401 l 0.4669795,1.1668126 1.1523568,-1.0868126 c 1.3259113,-1.2504956 2.6257923,-1.4203013 3.4976541,-0.4569048 0.4496172,0.4968216 0.538752,1.0074239 0.4218819,2.4167238 -0.123513,1.4894045 -0.052024,1.8382756 0.4294973,2.095978 1.562855,0.8364144 3.2161542,5.4938407 3.6284742,10.2215957 l 0.20968,2.404205 2.1397984,1.610416 c 3.9454368,2.969338 8.2483326,9.272154 9.9271836,14.541175 2.553476,8.014003 0.716477,16.169376 -4.5186012,20.060381 -3.2020352,2.37993 -5.8166176,3.079524 -10.9325987,2.925268 l -3.5038183,-0.105648 -0.6097097,1.15672 c -0.7341911,1.392883 -2.2827939,2.20328 -4.2102851,2.20328 -1.137693,0 -1.53245,-0.160861 -2.069143,-0.843155 z m 3.179111,-0.795351 c 1.1685107,-0.350096 1.2049379,-0.408288 1.5523833,-2.48 0.4451357,-2.654211 2.352041,-8.117082 2.8967853,-8.298663 0.422776,-0.140924 0.2878896,2.416772 -0.3004406,5.696916 -0.1420292,0.791862 -0.185929,1.511862 -0.097555,1.6 0.088374,0.08814 1.912487,0.153113 4.0535843,0.144387 C 1.142447,58.875359 2.1048086,58.753333 3.578703,58.169756 8.624799,56.171785 11.374821,51.76165 11.781029,45.015915 11.997906,41.41437 11.515135,39.073675 9.8113398,35.465973 8.0956342,31.833049 6.1240662,29.021551 3.236063,26.089502 L 0.5716086,23.384407 0.1772822,25.144408 c -0.21688,0.968 -0.5600224,2.776037 -0.7625408,4.01786 -0.2460992,1.509062 -0.6235968,2.570314 -1.1382752,3.200001 l -0.7700589,0.942139 -0.011508,-8.54425 C -2.5169005,15.999463 -2.7428263,13.762447 -3.8236576,11.704407 -4.8703588,9.7113549 -4.9118263,9.6760752 -5.65917,10.142799 c -1.0834403,0.67662 -1.2064704,0.05851 -0.4231145,-2.1257299 1.1287609,-3.1473442 0.5561027,-3.5150762 -1.8984762,-1.2191047 -0.9377971,0.8771991 -1.7098608,1.3724125 -1.8708627,1.2 -0.1507706,-0.1614566 -0.5129196,-1.1312749 -0.8047736,-2.1551517 -0.32452,-1.1384723 -0.680112,-1.8124703 -0.915429,-1.7351297 -0.533734,0.1754201 -0.667127,2.688812 -0.202265,3.8110881 0.210995,0.5093866 0.315681,0.9941031 0.232637,1.0771482 -0.273073,0.2730721 -4.839227,0.7482474 -7.801142,0.8118231 -5.25658,0.1128291 -10.891464,1.1378486 -11.715861,2.1311866 -0.543298,0.654634 -0.720925,6.941847 -0.271414,9.606851 0.6144,3.642575 -0.0097,3.404416 9.179808,3.50303 7.039635,0.07554 9.09021,-0.04638 11.873454,-0.705967 0.4081027,-0.09671 0.72,-0.02067 0.72,0.175537 0,0.464399 -3.487534,1.998338 -6.149961,2.704966 -2.365262,0.627759 -2.163124,0.358215 -3.240475,4.321062 -1.853458,6.817626 -1.436085,13.100544 1.251156,18.834244 1.18869,2.536275 2.986078,5.224048 3.345089,5.002166 0.172805,-0.1068 0.314191,-0.969184 0.314191,-1.91641 0,-1.877769 0.458171,-2.546137 0.944659,-1.378044 0.351538,0.84407 0.975341,6.543053 0.975341,8.910595 0,1.732586 0.07701,1.781818 1.922337,1.228944 z m -18.26326,-42.880589 c -0.199891,-0.373502 -0.281482,-1.088879 -0.181313,-1.589727 0.12596,-0.629797 0.03096,-0.995228 -0.308039,-1.184942 -0.399696,-0.223682 -0.412606,-0.3369 -0.06995,-0.613421 1.199107,-0.96766 3.167202,1.512886 2.530025,3.18879 -0.405215,1.065797 -1.450423,1.171498 -1.970728,0.1993 z m 12.304541,-4.580327 c -0.381711,-0.994722 0.674225,-1.62058 2.734215,-1.62058 1.402023,0 2.046793,0.155493 2.556132,0.616439 0.374637,0.339041 0.568851,0.728745 0.431588,0.866008 -0.137263,0.137263 -1.433347,0.348293 -2.880185,0.468954 -2.315523,0.193108 -2.655906,0.153482 -2.84175,-0.330821 z"
       id="path12192"
       inkscape:connector-curvature="0" />
    <path
       style="fill:#333333;fill-opacity:1;stroke-width:0.31999999"
       d="m -13.267013,63.191276 c -0.483786,-0.534214 -0.63283,-1.277187 -0.722173,-3.6 l -0.112578,-2.926867 -2.447422,-2.437489 c -2.752731,-2.741555 -4.343399,-5.177904 -5.395494,-8.264009 -1.412377,-4.142925 -0.829053,-11.192945 1.313299,-15.872461 l 0.765169,-1.671349 -5.005199,-0.145676 c -3.232083,-0.09407 -5.319726,-0.296806 -5.893057,-0.572292 -2.118869,-1.018117 -3.107611,-4.602573 -3.088523,-11.196726 0.01549,-5.35245 0.30663,-6.336722 2.056382,-6.9521948 3.04115,-1.0697217 6.084067,-1.4518622 11.33413,-1.4233815 2.889772,0.015677 5.651544,0.1157897 6.137273,0.2224736 l 0.883141,0.1939702 -0.02509,-2.4223924 c -0.02876,-2.7761863 0.484404,-3.6984753 2.05785,-3.6984753 0.814029,0 1.027192,0.2164284 1.7342251,1.7607938 l 0.8061181,1.7607938 0.9609024,-0.9609025 c 1.2479286,-1.2479285 2.2886611,-1.5002712 3.3417488,-0.8102617 0.7495152,0.4911014 0.8170717,0.7082381 0.732784,2.3552756 -0.084879,1.6586007 -0.00637,1.9048737 0.9148054,2.8696964 C -1.323041,11.07109 -0.267489,14.462145 0.205663,19.43718 l 0.2028352,2.132773 2.2571264,1.678413 c 4.3022752,3.199202 8.6913884,10.008255 10.1950144,15.816042 1.707418,6.594944 0.313427,13.415191 -3.547904,17.358484 -3.10808,3.174051 -7.1579712,4.48632 -12.7871712,4.143376 l -3.100831,-0.188912 -0.4506708,1.017811 c -0.9990636,2.25632 -4.826725,3.357875 -6.241075,1.796109 z m 4.611797,-3.258855 c 0.4950198,-2.6771 2.4114406,-8.318957 2.8786803,-8.474704 0.3945203,-0.131507 0.2830678,2.246167 -0.2590615,5.526692 -0.1454259,0.88 -0.2032313,1.661913 -0.1284563,1.737587 0.074775,0.07567 1.3607575,0.201875 2.8577389,0.280448 7.5467872,0.396102 12.4656256,-2.801703 14.4252126,-9.378036 0.819514,-2.750275 0.819667,-8.653219 2.85e-4,-11.04 -1.5172448,-4.419591 -3.6556192,-7.941153 -7.1781504,-11.821273 -3.523696,-3.8814 -3.3777344,-3.900443 -4.2064416,0.548781 -0.5873152,3.153232 -1.5605824,5.832492 -2.1187069,5.832492 -0.07442,0 -0.1267501,-3.78 -0.1162896,-8.4 0.022012,-9.722053 -0.3287101,-12.246923 -2.0055411,-14.438002 -0.3977187,-0.5196895 -0.5469536,-0.5422284 -1.1396029,-0.172113 -1.0764761,0.672271 -1.1766611,0.145465 -0.406144,-2.1356371 1.0836074,-3.2080007 0.01088,-3.4877175 -2.5668899,-0.6693245 -1.0894742,1.1911713 -1.2788074,1.0404567 -2.0684186,-1.6465187 -0.664204,-2.2602287 -1.272829,-2.0428039 -1.259468,0.4499318 0.0056,1.0404145 0.07758,2.0955227 0.16,2.3446852 0.222748,0.6733581 -1.337535,0.9378938 -7.690139,1.3038116 -5.75557,0.3315277 -7.709255,0.6088537 -10.282663,1.4596267 -1.774568,0.586675 -1.877337,0.900356 -1.877337,5.730169 0,3.635504 0.494094,6.803634 1.174886,7.533371 0.850301,0.911431 16.492494,0.949971 19.756711,0.04868 0.7325246,-0.202259 1.148403,-0.205215 1.148403,-0.0082 0,0.445027 -2.837943,1.694784 -5.776975,2.544031 -2.356426,0.6809 -2.556629,0.807064 -2.891681,1.822282 -1.025136,3.106193 -1.620978,6.380586 -1.789342,9.833172 -0.159885,3.278701 -0.08712,4.237587 0.497826,6.56 0.956473,3.797517 4.217602,10.240001 5.183398,10.240001 0.163226,0 0.296774,-0.864001 0.296774,-1.920001 0,-1.421388 0.11496,-1.92 0.442678,-1.92 0.61884,0 0.781537,0.8105 1.188361,5.920001 0.196187,2.464 0.406498,4.653632 0.467358,4.865849 0.08375,0.292039 0.451605,0.269677 1.513025,-0.09199 1.3847172,-0.471821 1.4069969,-0.502861 1.769971,-2.46585 z M -28.457532,19.345314 c -0.199891,-0.373502 -0.284758,-1.072502 -0.188592,-1.553334 0.09617,-0.480832 0.0099,-1.039239 -0.191818,-1.240906 -0.54225,-0.54225 0.101122,-0.993625 0.951157,-0.667309 0.967853,0.371544 1.760132,2.314981 1.36617,3.351179 -0.372949,0.98093 -1.438511,1.041648 -1.936917,0.11037 z m 12.299812,-4.592649 c -0.578758,-1.508219 3.043764,-2.329075 4.963834,-1.124794 0.604586,0.379201 0.95787,0.796782 0.8,0.945598 -0.155498,0.146578 -1.469532,0.367886 -2.920075,0.491794 -2.304344,0.196841 -2.663415,0.15737 -2.843759,-0.312598 z"
       id="path12190"
       inkscape:connector-curvature="0" />
  </g>
</svg>
